<svg width="25" height="25" viewBox="0 0 25 25" fill="none" xmlns="http://www.w3.org/2000/svg">
<path d="M24.4698 11.686C24.0201 5.07333 18.2965 0.0788825 11.6857 0.528629C8.3916 0.752476 5.50003 2.28654 3.48127 4.58456L3.47511 4.58046C3.46073 4.59894 3.44841 4.61742 3.43609 4.63591C1.4317 6.9483 0.304236 10.0205 0.528087 13.3146C0.548624 13.6288 0.58559 13.9368 0.630771 14.2428C0.630771 14.2572 0.634878 14.2695 0.636932 14.2839C0.667737 14.4852 0.702649 14.6864 0.741669 14.8836C0.741669 14.8877 0.741669 14.8918 0.743723 14.8938C0.780689 15.0725 0.819708 15.2512 0.864889 15.4278C2.25112 20.9541 7.42843 24.8683 13.3143 24.4679C19.925 24.0181 24.9216 18.2947 24.4719 11.6819L24.4698 11.686ZM21.8575 11.8647C21.913 12.678 21.8616 13.4748 21.7158 14.2428C21.7158 14.2387 21.7117 14.2346 21.7117 14.2305C20.841 12.105 19.12 10.5689 17.6085 9.72071C17.9145 6.11863 16.6926 4.59894 15.3084 4.3525C15.2714 4.34429 15.2324 4.33813 15.1954 4.33402C14.0967 4.19232 13.0925 4.9686 12.9528 6.06729C12.8111 7.16599 13.5874 8.17022 14.6861 8.30986C14.7826 8.32219 14.8771 8.32629 14.9695 8.32424C14.9757 8.4454 14.9798 8.57478 14.9798 8.71032C13.7004 8.39406 12.5051 8.3304 11.4146 8.42897C11.0059 8.45567 10.5993 8.50701 10.1927 8.583C10.3282 7.36724 10.7862 5.99952 11.6713 5.00145C12.5277 4.03419 13.801 3.48176 15.1893 3.62346C15.4521 3.65016 15.7335 3.71588 15.9861 3.80007C15.9984 3.80418 16.0107 3.80829 16.021 3.81034C19.2371 5.12056 21.6049 8.17432 21.8555 11.8647H21.8575ZM13.4929 13.6966C13.4929 13.6966 13.4929 13.6986 13.4909 13.7007C13.2054 14.1134 12.8645 14.5201 12.464 14.9144C11.8644 14.2777 11.3838 13.5898 11.0183 12.8792C10.9998 12.8402 10.9792 12.8053 10.9607 12.7663C10.9607 12.7663 10.9607 12.7642 10.9607 12.7622C10.7472 12.3083 10.5644 11.8093 10.4227 11.265C11.275 11.0638 12.1108 10.9899 12.9097 11.0289C12.9528 11.0309 12.9939 11.033 13.037 11.035H13.0411C13.5422 11.0761 14.0639 11.1685 14.604 11.3164C14.3514 12.1543 13.9981 12.9162 13.5648 13.5877C13.5422 13.6226 13.5196 13.6575 13.495 13.6945L13.4929 13.6966ZM9.3938 3.64811C9.3938 3.64811 9.38969 3.65427 9.38764 3.65632C7.98087 5.47174 7.51263 7.72868 7.53317 9.46195C4.25961 10.9981 3.55726 12.8155 4.03371 14.1381C4.04603 14.1751 4.06041 14.21 4.07478 14.2449C4.50195 15.2655 5.67665 15.7481 6.69732 15.321C7.718 14.8938 8.20061 13.7191 7.77345 12.6985C7.73648 12.6102 7.6913 12.526 7.64407 12.4459C7.74675 12.3781 7.85765 12.3104 7.97676 12.2405C8.34232 13.5076 8.88243 14.5776 9.51291 15.473C9.74087 15.8118 9.98731 16.1383 10.2563 16.4525C9.13503 16.9434 7.72211 17.2309 6.41392 16.9639C5.14885 16.7051 4.03371 15.8796 3.46073 14.6063C3.35189 14.364 3.26769 14.0888 3.21429 13.828C3.18143 13.6 3.15474 13.37 3.13831 13.1359C2.84668 8.83765 5.51235 5.01172 9.3938 3.64811ZM13.1356 21.8577C10.5829 22.0323 8.1965 21.1615 6.39338 19.6131C8.66885 19.9232 10.8581 19.2003 12.349 18.3152C15.3166 20.3832 17.2429 20.0834 18.1507 19.0093C18.1753 18.9806 18.1999 18.9498 18.2225 18.919C18.8941 18.0379 18.7236 16.7811 17.8426 16.1096C16.9616 15.438 15.7047 15.6085 15.0332 16.4895C14.9757 16.5655 14.9243 16.6476 14.8792 16.7298C14.7703 16.6743 14.6553 16.6127 14.5382 16.545C15.4542 15.5941 16.1052 14.5899 16.5652 13.5959C16.7459 13.2283 16.9041 12.8505 17.0417 12.4603C18.0274 13.1873 18.9845 14.2654 19.4075 15.5325C19.8162 16.7565 19.6601 18.1365 18.8427 19.2681C18.6887 19.4817 18.4916 19.6932 18.2924 19.8698C18.2903 19.8718 18.2862 19.876 18.2841 19.878C16.8548 21.0013 15.0845 21.7242 13.1376 21.8557L13.1356 21.8577Z" fill="url(#paint0_linear_498_505)"/>
<path style="mix-blend-mode:overlay" opacity="0.9" d="M15.3089 4.35041C15.2719 4.34219 15.2329 4.33603 15.1959 4.33193C15.0008 4.30728 14.8098 4.31139 14.6271 4.34219C15.7751 4.9665 16.6109 6.70593 16.1714 10.1396C16.0256 11.2773 15.6868 12.3575 15.2 13.3515C14.8037 14.2058 14.2656 15.0663 13.5427 15.8939C13.8898 16.1547 14.2287 16.3724 14.5388 16.549C15.4547 15.5982 16.1057 14.594 16.5657 13.6C17.0545 12.6081 17.3913 11.5258 17.5371 10.3881C18.0608 6.30137 16.7752 4.61327 15.3089 4.35246V4.35041Z" fill="url(#paint1_radial_498_505)"/>
<g style="mix-blend-mode:overlay" opacity="0.8">
<path d="M16.1716 10.1375C16.6111 6.70588 15.7753 4.96439 14.6273 4.34009C14.5821 4.34625 14.539 4.35652 14.4938 4.36679C15.6171 5.01368 16.4263 6.75106 15.993 10.1375C15.8471 11.2752 15.5083 12.3554 15.0216 13.3494C14.6396 14.175 14.1221 15.0067 13.4341 15.8097C13.471 15.8384 13.506 15.8651 13.5429 15.8918C14.2658 15.0642 14.8039 14.2017 15.2002 13.3494C15.689 12.3575 16.0258 11.2752 16.1716 10.1375Z" fill="white"/>
</g>
<path style="mix-blend-mode:overlay" opacity="0.5" d="M11.8078 17.9229C11.699 17.8407 11.5963 17.7545 11.4915 17.6682C9.79727 18.3747 7.44992 18.8182 5.11694 18.2761C5.49893 18.7628 5.92404 19.2125 6.39227 19.613C8.66775 19.9231 10.857 19.2002 12.3479 18.3151C12.1713 18.1919 11.9906 18.0605 11.8058 17.9208L11.8078 17.9229Z" fill="url(#paint2_radial_498_505)"/>
<path style="mix-blend-mode:overlay" opacity="0.6" d="M11.4934 17.6682C11.4421 17.6251 11.3887 17.5819 11.3394 17.5388C9.63277 18.2206 7.2731 18.6293 4.94629 18.0481C5.00379 18.1241 5.06129 18.2021 5.1188 18.2761C7.44972 18.8182 9.79912 18.3746 11.4934 17.6682Z" fill="url(#paint3_linear_498_505)"/>
<path style="mix-blend-mode:overlay" opacity="0.9" d="M4.03573 14.1402C4.04805 14.1771 4.06242 14.212 4.0768 14.247C4.15278 14.4277 4.25136 14.5899 4.37047 14.7357C4.33762 13.4296 5.42606 11.8339 8.61747 10.4991C9.67511 10.0575 10.78 9.80905 11.8849 9.73512C12.8213 9.65092 13.8379 9.68583 14.9161 9.89941C14.9674 9.46814 14.988 9.06563 14.9839 8.71035C13.7044 8.39204 12.5071 8.33043 11.4166 8.429C10.3138 8.50293 9.20688 8.75142 8.14923 9.19296C4.34788 10.7825 3.52847 12.7396 4.03573 14.1422V14.1402Z" fill="url(#paint4_radial_498_505)"/>
<g style="mix-blend-mode:overlay" opacity="0.8">
<path d="M8.61734 10.5012C5.42594 11.8361 4.33749 13.4318 4.37035 14.7379C4.3991 14.7728 4.4299 14.8057 4.46071 14.8385C4.45866 13.5427 5.55943 11.9737 8.70771 10.6553C9.76535 10.2137 10.8702 9.96523 11.9751 9.8913C12.8808 9.80916 13.8604 9.84202 14.8995 10.0351C14.9057 9.98988 14.9119 9.9447 14.916 9.89952C13.8378 9.68799 12.8212 9.65103 11.8847 9.73523C10.7819 9.80916 9.67499 10.0576 8.61734 10.4992V10.5012Z" fill="white"/>
</g>
<path style="mix-blend-mode:overlay" opacity="0.4" d="M17.5409 10.3861C17.5244 10.5216 17.5018 10.6531 17.4792 10.7865C18.9374 11.8996 20.4961 13.713 21.1943 16.0028C21.4244 15.4278 21.601 14.8343 21.7139 14.2284C20.8452 12.1029 19.1242 10.5689 17.6127 9.7207C17.5943 9.93634 17.5717 10.1561 17.5429 10.3861H17.5409Z" fill="url(#paint5_radial_498_505)"/>
<path style="mix-blend-mode:overlay" opacity="0.5" d="M17.4788 10.7866C17.4664 10.8523 17.4562 10.9201 17.4438 10.9858C18.8876 12.1235 20.4217 13.9615 21.0809 16.2678C21.1199 16.1795 21.1569 16.0912 21.1918 16.0029C20.4936 13.7131 18.9369 11.9017 17.4767 10.7866H17.4788Z" fill="url(#paint6_linear_498_505)"/>
<path style="mix-blend-mode:overlay" opacity="0.9" d="M18.15 19.0073C18.1747 18.9786 18.1993 18.9478 18.2219 18.917C18.341 18.7609 18.4314 18.5925 18.4992 18.42C17.384 19.1018 15.4597 18.956 12.7057 16.8592C11.7939 16.1651 11.0258 15.3313 10.4097 14.4113C9.86756 13.6412 9.39111 12.7458 9.03583 11.7046C8.63741 11.875 8.27802 12.0599 7.96997 12.2406C8.33552 13.5077 8.87975 14.5756 9.51023 15.471C10.1263 16.391 10.8944 17.2227 11.8062 17.9189C15.0839 20.4161 17.1889 20.1471 18.148 19.0073H18.15Z" fill="url(#paint7_radial_498_505)"/>
<g style="mix-blend-mode:overlay" opacity="0.8">
<path d="M12.7089 16.859C15.4608 18.9558 17.3871 19.1016 18.5023 18.4198C18.5187 18.3767 18.5331 18.3336 18.5454 18.2925C17.4241 18.9435 15.5142 18.773 12.7992 16.705C11.8874 16.0109 11.1193 15.1771 10.5032 14.2571C9.97954 13.5137 9.51747 12.6491 9.16629 11.6531C9.12316 11.6716 9.08209 11.688 9.04102 11.7065C9.3963 12.7477 9.87275 13.6431 10.4149 14.4132C11.031 15.3332 11.7991 16.1649 12.7109 16.8611L12.7089 16.859Z" fill="white"/>
</g>
<path style="mix-blend-mode:overlay" opacity="0.3" d="M8.14716 9.18867C8.27244 9.13733 8.39771 9.0901 8.52504 9.04287C8.75916 7.22334 9.54982 4.9664 11.1845 3.21875C10.5726 3.30706 9.97082 3.45081 9.38758 3.65412C7.98081 5.46954 7.51258 7.72648 7.53311 9.45975C7.72821 9.36734 7.93153 9.27698 8.14511 9.18867H8.14716Z" fill="url(#paint8_radial_498_505)"/>
<path style="mix-blend-mode:overlay" opacity="0.4" d="M8.52539 9.04297C8.58905 9.02038 8.65066 8.99573 8.71433 8.97314C8.9772 7.15362 9.80278 4.90694 11.4683 3.18188C11.3738 3.19215 11.2794 3.20447 11.1849 3.2168C9.55017 4.9665 8.75951 7.22139 8.52539 9.04091V9.04297Z" fill="url(#paint9_linear_498_505)"/>
<path style="mix-blend-mode:multiply" opacity="0.4" d="M11.6861 0.528484C8.39204 0.752331 5.50047 2.2864 3.4817 4.58442C3.46733 4.60085 3.4509 4.61933 3.43652 4.63576C3.82878 5.02595 5.11437 5.79401 5.63395 6.11438C6.65668 5.01568 7.94023 4.15726 9.39628 3.64796C9.49691 3.51653 9.6037 3.38715 9.7146 3.26188C11.07 1.73192 12.9204 0.924837 15.0685 0.924837C15.3068 0.924837 15.7935 0.963856 15.8037 0.963856C14.5017 0.590094 13.1155 0.42991 11.6861 0.528484Z" fill="url(#paint10_linear_498_505)"/>
<path style="mix-blend-mode:multiply" opacity="0.4" d="M13.1364 21.8595C10.5837 22.0341 8.19734 21.1633 6.39421 19.6149C6.22581 19.5923 6.05741 19.5656 5.88901 19.5307C3.88668 19.122 2.26017 17.9227 1.18815 16.0642C1.06904 15.8567 0.962245 15.6473 0.865723 15.4316C2.25195 20.958 7.42926 24.8722 13.313 24.4718C13.3397 23.8659 13.1611 22.4592 13.1344 21.8595H13.1364Z" fill="url(#paint11_linear_498_505)"/>
<path style="mix-blend-mode:multiply" opacity="0.4" d="M24.4703 11.686C24.1006 11.649 22.3016 11.7907 21.858 11.8646C21.9135 12.6779 21.8621 13.4747 21.7163 14.2428C21.7779 14.3947 21.8375 14.5508 21.8909 14.7089C22.5378 16.6476 22.3119 18.654 21.2399 20.5146C21.1228 20.7179 20.9955 20.913 20.862 21.0998C20.8599 21.104 20.8558 21.1081 20.8538 21.1101C20.8538 21.1101 20.8599 21.106 20.862 21.1019C23.2997 18.73 24.7188 15.3456 24.4703 11.688V11.686Z" fill="url(#paint12_linear_498_505)"/>
<path style="mix-blend-mode:multiply" opacity="0.5" d="M15.1925 3.62128C15.4554 3.64797 15.7367 3.71369 15.9893 3.79789C16.0016 3.802 16.014 3.8061 16.0242 3.80816C17.0593 4.22915 18.006 4.83292 18.8234 5.57839C18.8234 5.57839 18.8275 5.58045 18.8295 5.5825C19.2239 5.13275 19.9817 4.63783 19.9817 4.63783C19.9817 4.63783 18.8213 3.45082 17.0449 3.08117C15.8024 2.82241 12.9992 2.57392 11.231 5.5825C11.231 5.5825 11.2371 5.57634 11.2474 5.56607C11.3788 5.36892 11.5164 5.17588 11.6746 4.99927C12.5309 4.032 13.8042 3.47958 15.1925 3.62128Z" fill="url(#paint13_linear_498_505)"/>
<path style="mix-blend-mode:multiply" opacity="0.5" d="M18.8435 19.27C18.6895 19.4835 18.4923 19.6951 18.2931 19.8717C18.2849 19.8799 18.2747 19.8881 18.2664 19.8963C17.3834 20.5822 16.3873 21.0997 15.3338 21.4345C15.3317 21.4345 15.3297 21.4345 15.3276 21.4365C15.5207 22.0033 15.57 22.9069 15.57 22.9069C15.57 22.9069 17.178 22.4962 18.3856 21.1429C19.2296 20.1961 20.8479 17.892 19.1269 14.8567C19.1269 14.8567 19.129 14.867 19.1331 14.8793C19.2399 15.0908 19.3364 15.3085 19.4103 15.5323C19.819 16.7563 19.6629 18.1363 18.8456 19.2679L18.8435 19.27Z" fill="url(#paint14_linear_498_505)"/>
<path style="mix-blend-mode:multiply" opacity="0.5" d="M3.46574 14.6102C3.35689 14.3679 3.27269 14.0927 3.2193 13.8319C3.21724 13.8195 3.21313 13.8072 3.21108 13.7949C3.05911 12.688 3.1084 11.5667 3.34457 10.4865C3.34457 10.4844 3.34457 10.4824 3.34457 10.4803C2.75722 10.3653 1.95012 9.95459 1.95012 9.95459C1.95012 9.95459 1.50242 11.5544 2.07129 13.2753C2.4697 14.4808 3.65467 17.0335 7.14387 17.0602C7.14387 17.0602 7.1336 17.0581 7.12128 17.054C6.8851 17.0396 6.64893 17.015 6.41686 16.9678C5.1518 16.709 4.03666 15.8834 3.46368 14.6102H3.46574Z" fill="url(#paint15_linear_498_505)"/>
<path style="mix-blend-mode:multiply" opacity="0.6" d="M14.6855 8.30757C14.7821 8.31989 14.8765 8.324 14.9689 8.32195C14.9689 8.32195 14.9053 7.07539 14.7533 6.43465C14.5993 5.79597 14.3734 5.37087 14.1269 5.13059C13.9483 4.95809 13.3876 4.74451 12.9522 6.06295C12.8105 7.16164 13.5868 8.16587 14.6855 8.30552V8.30757Z" fill="url(#paint16_linear_498_505)"/>
<path style="mix-blend-mode:multiply" opacity="0.5" d="M7.77456 12.7023C7.7376 12.614 7.69242 12.5298 7.64518 12.4497C7.64518 12.4497 6.59576 13.1274 6.1193 13.5792C5.64285 14.031 5.38819 14.4397 5.30399 14.7744C5.24444 15.0147 5.33891 15.6061 6.69844 15.3248C7.71911 14.8976 8.20173 13.723 7.77456 12.7023Z" fill="url(#paint17_linear_498_505)"/>
<path style="mix-blend-mode:multiply" opacity="0.6" d="M15.0344 16.4873C14.9769 16.5633 14.9256 16.6454 14.8804 16.7276C14.8804 16.7276 15.9914 17.2964 16.6219 17.4833C17.2524 17.6702 17.7329 17.6866 18.0636 17.5921C18.3018 17.5244 18.7659 17.1445 17.8438 16.1094C16.9628 15.4379 15.7059 15.6083 15.0344 16.4893V16.4873Z" fill="url(#paint18_linear_498_505)"/>
<path style="mix-blend-mode:multiply" opacity="0.3" d="M14.6044 11.3181C14.3518 12.156 13.9986 12.9179 13.5653 13.5894C13.5427 13.6244 13.5201 13.6593 13.4954 13.6962C13.4954 13.6962 13.4954 13.6983 13.4934 13.7003C13.2079 14.1131 12.867 14.5197 12.4666 14.914C12.7417 15.2057 13.0375 15.4891 13.364 15.7581C13.7747 16.0805 14.1752 16.3413 14.5387 16.5467C15.4546 15.5958 16.1057 14.5916 16.5657 13.5977C16.7464 13.2301 16.9045 12.8522 17.0421 12.462C16.6191 12.1519 16.1919 11.9034 15.7976 11.735C15.391 11.5604 14.9926 11.4249 14.6024 11.3181H14.6044Z" fill="url(#paint19_linear_498_505)"/>
<path style="mix-blend-mode:multiply" opacity="0.3" d="M6.39428 19.6149C8.66975 19.925 10.859 19.2022 12.3499 18.317C12.1733 18.1938 11.9926 18.0624 11.8078 17.9227C11.2327 17.4833 10.7152 16.9904 10.2552 16.4544C9.13388 16.9452 7.72095 17.2327 6.41276 16.9657C5.1477 16.707 4.03255 15.8814 3.45958 14.6082C3.35073 14.3658 3.26653 14.0906 3.21313 13.8298C3.54378 16.1504 4.71437 18.1753 6.39222 19.6149H6.39428Z" fill="url(#paint20_linear_498_505)"/>
<path style="mix-blend-mode:multiply" opacity="0.3" d="M12.4673 14.9142C11.8676 14.2776 11.387 13.5896 11.0215 12.8791C11.003 12.84 10.9825 12.8051 10.964 12.7661C10.964 12.7661 10.964 12.764 10.964 12.762C10.7504 12.3081 10.5676 11.8091 10.4259 11.2649C10.0357 11.3573 9.64346 11.4723 9.24915 11.6202C8.76448 11.8132 8.33937 12.0309 7.97998 12.2404C8.34553 13.5075 8.88565 14.5774 9.51613 15.4728C9.74409 15.8116 9.99053 16.1382 10.2596 16.4524C10.7401 16.2429 11.1693 15.9944 11.5123 15.7377C11.8655 15.4728 12.1818 15.1956 12.4693 14.9122L12.4673 14.9142Z" fill="url(#paint21_linear_498_505)"/>
<path style="mix-blend-mode:multiply" opacity="0.3" d="M9.38905 3.65608C7.98228 5.47149 7.51404 7.72844 7.53458 9.46171C7.72968 9.3693 7.93505 9.27894 8.14863 9.18858C8.81607 8.90928 9.502 8.70803 10.1941 8.57865C10.3296 7.36289 10.7876 5.99517 11.6727 4.9971C12.5291 4.02984 13.8024 3.47741 15.1907 3.61911C15.4535 3.64581 15.7349 3.71153 15.9875 3.79573C15.9998 3.79983 16.0121 3.80394 16.0224 3.80599C14.743 3.28437 13.33 3.03793 11.8617 3.13856C10.9991 3.19812 10.1735 3.37268 9.39315 3.64786C9.3911 3.64992 9.38905 3.65402 9.38699 3.65608H9.38905Z" fill="url(#paint22_linear_498_505)"/>
<path style="mix-blend-mode:multiply" opacity="0.3" d="M21.7147 14.2261C20.844 12.1006 19.123 10.5645 17.6115 9.71631C17.593 9.93194 17.5704 10.1537 17.5396 10.3858C17.4472 11.1025 17.2788 11.7966 17.0447 12.462C18.0304 13.189 18.9875 14.2672 19.4105 15.5343C19.8192 16.7582 19.6631 18.1383 18.8458 19.2698C18.6917 19.4834 18.4946 19.6949 18.2954 19.8715C18.2933 19.8736 18.2892 19.8777 18.2872 19.8798C20.0492 18.4956 21.2958 16.4995 21.7229 14.2405C21.7229 14.2364 21.7188 14.2323 21.7188 14.2282L21.7147 14.2261Z" fill="url(#paint23_linear_498_505)"/>
<path style="mix-blend-mode:multiply" opacity="0.3" d="M10.1871 10.0245C10.2405 10.464 10.3206 10.8747 10.4233 11.2649C11.2756 11.0637 12.1114 10.9897 12.9103 11.0288C12.9534 11.0308 12.9945 11.0329 13.0376 11.0349H13.0418C13.5428 11.076 14.0645 11.1684 14.6046 11.3163C14.7196 10.9322 14.8161 10.5338 14.886 10.119C14.9619 9.60148 14.9845 9.12298 14.9825 8.70609C13.703 8.38983 12.5078 8.32617 11.4173 8.42474C11.0086 8.45144 10.602 8.50278 10.1954 8.57877C10.1379 9.10039 10.1358 9.59532 10.1892 10.0225L10.1871 10.0245Z" fill="url(#paint24_linear_498_505)"/>
<defs>
<linearGradient id="paint0_linear_498_505" x1="4.31095" y1="20.6892" x2="19.6106" y2="5.38727" gradientUnits="userSpaceOnUse">
<stop stop-color="#E6007A"/>
<stop offset="0.21" stop-color="#703AC2"/>
<stop offset="0.46" stop-color="#0070EB"/>
<stop offset="0.77" stop-color="#0297FB"/>
<stop offset="1" stop-color="#0AE2FF"/>
</linearGradient>
<radialGradient id="paint1_radial_498_505" cx="0" cy="0" r="1" gradientUnits="userSpaceOnUse" gradientTransform="translate(15.9209 10.0698) scale(4.56326 4.56318)">
<stop stop-color="white"/>
<stop offset="1" stop-color="white" stop-opacity="0"/>
</radialGradient>
<radialGradient id="paint2_radial_498_505" cx="0" cy="0" r="1" gradientUnits="userSpaceOnUse" gradientTransform="translate(9.17706 18.5348) scale(2.6554 2.65535)">
<stop stop-color="white"/>
<stop offset="1" stop-color="white" stop-opacity="0"/>
</radialGradient>
<linearGradient id="paint3_linear_498_505" x1="5.19273" y1="18.0851" x2="7.75161" y2="18.0502" gradientUnits="userSpaceOnUse">
<stop stop-color="white" stop-opacity="0"/>
<stop offset="1" stop-color="white"/>
</linearGradient>
<radialGradient id="paint4_radial_498_505" cx="0" cy="0" r="1" gradientUnits="userSpaceOnUse" gradientTransform="translate(8.68631 10.7515) rotate(-120) scale(4.5632 4.56324)">
<stop stop-color="white"/>
<stop offset="1" stop-color="white" stop-opacity="0"/>
</radialGradient>
<radialGradient id="paint5_radial_498_505" cx="0" cy="0" r="1" gradientUnits="userSpaceOnUse" gradientTransform="translate(19.3897 12.3595) rotate(-120) scale(2.65537 2.65539)">
<stop stop-color="white"/>
<stop offset="1" stop-color="white" stop-opacity="0"/>
</radialGradient>
<linearGradient id="paint6_linear_498_505" x1="20.9908" y1="16.033" x2="19.6811" y2="13.8344" gradientUnits="userSpaceOnUse">
<stop stop-color="white" stop-opacity="0"/>
<stop offset="1" stop-color="white"/>
</linearGradient>
<radialGradient id="paint7_radial_498_505" cx="0" cy="0" r="1" gradientUnits="userSpaceOnUse" gradientTransform="translate(12.6757 16.4645) rotate(120) scale(4.5632 4.56324)">
<stop stop-color="white"/>
<stop offset="1" stop-color="white" stop-opacity="0"/>
</radialGradient>
<radialGradient id="paint8_radial_498_505" cx="0" cy="0" r="1" gradientUnits="userSpaceOnUse" gradientTransform="translate(8.93368 6.60377) rotate(120) scale(2.65536 2.65539)">
<stop stop-color="white"/>
<stop offset="1" stop-color="white" stop-opacity="0"/>
</radialGradient>
<linearGradient id="paint9_linear_498_505" x1="11.3138" y1="3.37742" x2="10.0664" y2="5.61193" gradientUnits="userSpaceOnUse">
<stop stop-color="white" stop-opacity="0"/>
<stop offset="1" stop-color="white"/>
</linearGradient>
<linearGradient id="paint10_linear_498_505" x1="11.871" y1="2.24122" x2="7.96078" y2="3.37897" gradientUnits="userSpaceOnUse">
<stop stop-color="#231F20"/>
<stop offset="1" stop-color="white"/>
</linearGradient>
<linearGradient id="paint11_linear_498_505" x1="4.4843" y1="17.1505" x2="7.75368" y2="20.5637" gradientUnits="userSpaceOnUse">
<stop stop-color="#231F20"/>
<stop offset="1" stop-color="white"/>
</linearGradient>
<linearGradient id="paint12_linear_498_505" x1="22.0305" y1="16.6373" x2="23.1682" y2="13.179" gradientUnits="userSpaceOnUse">
<stop stop-color="#231F20"/>
<stop offset="1" stop-color="white"/>
</linearGradient>
<linearGradient id="paint13_linear_498_505" x1="13.6522" y1="4.22094" x2="18.8932" y2="5.4203" gradientUnits="userSpaceOnUse">
<stop stop-color="#231F20"/>
<stop offset="1" stop-color="white"/>
</linearGradient>
<linearGradient id="paint14_linear_498_505" x1="19.0954" y1="17.6359" x2="15.4335" y2="21.5758" gradientUnits="userSpaceOnUse">
<stop stop-color="#231F20"/>
<stop offset="1" stop-color="white"/>
</linearGradient>
<linearGradient id="paint15_linear_498_505" x1="4.75378" y1="15.6443" x2="3.17379" y2="10.5048" gradientUnits="userSpaceOnUse">
<stop stop-color="#231F20"/>
<stop offset="1" stop-color="white"/>
</linearGradient>
<linearGradient id="paint16_linear_498_505" x1="14.7964" y1="6.15331" x2="13.1391" y2="7.81267" gradientUnits="userSpaceOnUse">
<stop stop-color="#231F20"/>
<stop offset="1" stop-color="white"/>
</linearGradient>
<linearGradient id="paint17_linear_498_505" x1="5.8544" y1="13.6804" x2="8.11935" y2="14.2888" gradientUnits="userSpaceOnUse">
<stop stop-color="#231F20"/>
<stop offset="1" stop-color="white"/>
</linearGradient>
<linearGradient id="paint18_linear_498_505" x1="16.8434" y1="17.6612" x2="16.2368" y2="15.3973" gradientUnits="userSpaceOnUse">
<stop stop-color="#231F20"/>
<stop offset="1" stop-color="white"/>
</linearGradient>
<linearGradient id="paint19_linear_498_505" x1="13.3969" y1="15.6472" x2="14.3929" y2="14.2733" gradientUnits="userSpaceOnUse">
<stop stop-color="#231F20"/>
<stop offset="1" stop-color="white"/>
</linearGradient>
<linearGradient id="paint20_linear_498_505" x1="9.97177" y1="15.0517" x2="7.98178" y2="16.0006" gradientUnits="userSpaceOnUse">
<stop stop-color="#231F20"/>
<stop offset="1" stop-color="white"/>
</linearGradient>
<linearGradient id="paint21_linear_498_505" x1="9.24915" y1="11.7393" x2="9.86524" y2="13.0187" gradientUnits="userSpaceOnUse">
<stop stop-color="#231F20"/>
<stop offset="1" stop-color="white"/>
</linearGradient>
<linearGradient id="paint22_linear_498_505" x1="12.1143" y1="7.788" x2="11.6892" y2="6.31964" gradientUnits="userSpaceOnUse">
<stop stop-color="#231F20"/>
<stop offset="1" stop-color="white"/>
</linearGradient>
<linearGradient id="paint23_linear_498_505" x1="16.7099" y1="14.5136" x2="17.9421" y2="14.797" gradientUnits="userSpaceOnUse">
<stop stop-color="#231F20"/>
<stop offset="1" stop-color="white"/>
</linearGradient>
<linearGradient id="paint24_linear_498_505" x1="14.7771" y1="10.3511" x2="13.2143" y2="10.0676" gradientUnits="userSpaceOnUse">
<stop stop-color="#231F20"/>
<stop offset="1" stop-color="white"/>
</linearGradient>
</defs>
</svg>
